<?xml version="1.0" encoding="utf-8"?>
<!-- Generator: Adobe Illustrator 27.1.1, SVG Export Plug-In . SVG Version: 6.00 Build 0)  -->
<svg version="1.1" id="Capa_1" xmlns="http://www.w3.org/2000/svg" xmlns:xlink="http://www.w3.org/1999/xlink" x="0px" y="0px"
	 viewBox="0 0 29.29 47.5" style="enable-background:new 0 0 29.29 47.5;" xml:space="preserve">
<style type="text/css">
	.st0{fill:#009FE3;}
	.st1{fill:#02C39A;}
</style>
<g>
	<path class="st0" d="M22.83,1.37L2.71,6.61C0.79,7.11-0.36,9.07,0.14,11l0,0l27.08-7.06l0,0C26.71,2.02,24.75,0.86,22.83,1.37z"/>
	<path class="st0" d="M18.14,2.59L18.14,2.59L7.4,5.39l0,0C6.92,3.54,8.03,1.65,9.88,1.16l4.04-1.05
		C15.76-0.37,17.65,0.74,18.14,2.59z M15.04,1.21L9.43,2.68C8.97,2.8,8.69,3.27,8.81,3.73l0,0c0.05,0.19,0.24,0.3,0.42,0.25
		l6.6-1.72c0.19-0.05,0.3-0.24,0.25-0.42v0C15.97,1.37,15.5,1.09,15.04,1.21z"/>
</g>
<g>
	<path class="st0" d="M0,14v9.47c0.02,3.09,0.97,5.96,2.58,8.33c0.24,0.35,0.49,0.68,0.76,1.01L14.42,47.5l10.49-13.52l1.68-2.18
		l0.64-0.82v-0.01c1.31-2.22,2.06-4.82,2.06-7.59V14H0z M7.46,28.96v-8.68c0-0.5,0.41-0.91,0.91-0.91H8.8
		c0.51,0,0.92,0.41,0.92,0.91v8.68c0,0.51-0.41,0.92-0.92,0.92H8.37C7.87,29.88,7.46,29.47,7.46,28.96z M13.52,28.96v-8.68
		c0-0.5,0.41-0.91,0.91-0.91h0.43c0.51,0,0.92,0.41,0.92,0.91v8.68c0,0.51-0.41,0.92-0.92,0.92h-0.43
		C13.93,29.88,13.52,29.47,13.52,28.96z M21.84,28.96c0,0.51-0.41,0.92-0.92,0.92h-0.43c-0.5,0-0.91-0.41-0.91-0.92v-8.68
		c0-0.5,0.41-0.91,0.91-0.91h0.43c0.51,0,0.92,0.41,0.92,0.91V28.96z"/>
</g>
<path class="st1" d="M21.16,10.36l1.37,1.44l-5.38,1.45l1.39-5.67l1.3,1.37c2.4-1.83,5.86-6.6,8.85-0.28
	C28.68,8.67,25.79,4.99,21.16,10.36z"/>
</svg>
