<?xml version="1.0" encoding="utf-8"?>
<!-- Generator: Adobe Illustrator 27.1.1, SVG Export Plug-In . SVG Version: 6.00 Build 0)  -->
<svg version="1.1" id="Capa_1" xmlns="http://www.w3.org/2000/svg" xmlns:xlink="http://www.w3.org/1999/xlink" x="0px" y="0px"
	 viewBox="0 0 36.06 48" style="enable-background:new 0 0 36.06 48;" xml:space="preserve">
<style type="text/css">
	.st0{fill:#05668D;}
	.st1{fill:#02C39A;}
	.st2{fill:#1D1D1B;}
	.st3{fill:#FFFFFF;}
</style>
<g>
	<g>
		<path class="st0" d="M36.06,18.29c0,3.46-0.95,6.69-2.59,9.45l0,0l-2.89,3.68L17.56,47.98L4.03,29.81C1.51,26.67,0,22.66,0,18.29
			C0,8.19,8.07,0,18.03,0C27.98,0,36.06,8.19,36.06,18.29z M18.03,7.83c-5.7,0-10.33,4.69-10.33,10.48s4.62,10.48,10.33,10.48
			s10.33-4.69,10.33-10.48C28.36,12.52,23.73,7.83,18.03,7.83z"/>
	</g>
	<circle class="st1" cx="18.03" cy="18.75" r="6.58"/>
	<circle class="st2" cx="18.03" cy="18.75" r="3.54"/>
	<circle class="st3" cx="21.42" cy="16.01" r="2.27"/>
</g>
</svg>
