<?xml version="1.0" encoding="utf-8"?>
<!-- Generator: Adobe Illustrator 27.1.1, SVG Export Plug-In . SVG Version: 6.00 Build 0)  -->
<svg version="1.1" id="Capa_1" xmlns="http://www.w3.org/2000/svg" xmlns:xlink="http://www.w3.org/1999/xlink" x="0px" y="0px"
	 viewBox="0 0 48 48" style="enable-background:new 0 0 48 48;" xml:space="preserve">
<style type="text/css">
	.st0{fill:#606060;}
	.st1{fill:#E30613;}
</style>
<path class="st0" d="M17.17,42.07c0,4.44-3.84,5.93-8.59,5.93C3.84,48,0,46.5,0,42.07c0-4.29,3.6-10.22,8.12-10.6l-1.2-2.55
	l4.67-0.75L9.37,31.5C13.75,32.13,17.17,37.88,17.17,42.07z"/>
<g>
	<path class="st1" d="M42.04,18.29c0,3.46-0.95,6.7-2.59,9.46l0,0l-2.89,3.68L23.53,48L10,29.83c-2.52-3.15-4.04-7.16-4.04-11.53
		C5.96,8.19,14.04,0,24,0C33.96,0,42.04,8.19,42.04,18.29z M24,7.84c-5.71,0-10.33,4.69-10.33,10.48S18.29,28.8,24,28.8
		c5.71,0,10.33-4.69,10.33-10.48S29.71,7.84,24,7.84z"/>
</g>
<g>
	<polygon class="st1" points="20.12,10.27 22.99,20.62 25.01,20.62 27.88,10.27 	"/>
	<circle class="st1" cx="24" cy="23.27" r="1.57"/>
</g>
<path class="st0" d="M48.07,39.68c0,6.22-5.39,8.32-12.04,8.32C29.39,48,24,45.9,24,39.68c0-6.02,5.04-14.32,11.39-14.86l-1.96-4.05
	l5.24,0.3l-1.52,3.8C43.27,25.76,48.07,33.81,48.07,39.68z"/>
</svg>
