<?xml version="1.0" encoding="utf-8"?>
<!-- Generator: Adobe Illustrator 27.1.1, SVG Export Plug-In . SVG Version: 6.00 Build 0)  -->
<svg version="1.1" id="Capa_1" xmlns="http://www.w3.org/2000/svg" xmlns:xlink="http://www.w3.org/1999/xlink" x="0px" y="0px"
	 viewBox="0 0 1003.76 354.24" style="enable-background:new 0 0 1003.76 354.24;" xml:space="preserve">
<style type="text/css">
	.st0{fill:none;stroke:#000000;stroke-width:5;stroke-miterlimit:10;}
	.st1{fill:#02C39A;}
	.st2{fill:none;stroke:#000000;stroke-width:5;stroke-linecap:round;stroke-miterlimit:10;}
</style>
<ellipse class="st0" cx="146.46" cy="73.44" rx="82.13" ry="70.93"/>
<path d="M140.58,73.82c0,13.34-10.81,24.15-24.15,24.15S92.27,87.16,92.27,73.82s10.81-24.15,24.15-24.15S140.58,60.49,140.58,73.82
	z M131.73,73.82c0-8.45-6.85-15.31-15.31-15.31s-15.31,6.85-15.31,15.31s6.85,15.31,15.31,15.31S131.73,82.28,131.73,73.82z"/>
<path d="M79.23,254.75c0,0,72.05-37.49,26.02-103.91c0,0,32.65,9.03,34.2,9.56c1.55,0.53,13.37,82.84,13.37,82.84l-44.58,26.78
	L79.23,254.75z"/>
<path d="M206,73.82c0,13.34-10.81,24.15-24.15,24.15S157.7,87.16,157.7,73.82s10.81-24.15,24.15-24.15S206,60.49,206,73.82z
	 M197.16,73.82c0-8.45-6.85-15.31-15.31-15.31s-15.31,6.85-15.31,15.31s6.85,15.31,15.31,15.31S197.16,82.28,197.16,73.82z"/>
<circle cx="116.42" cy="73.82" r="8.19"/>
<path d="M204.61,143.64c-3.73-14.11-16.99-8.76-29.57-5c-12.59,3.76-18.33,10.81-16.01,18.61c2.33,7.79,14.41,11.07,27,7.31
	S206.69,151.51,204.61,143.64z"/>
<circle cx="181.85" cy="73.82" r="8.19"/>
<g>
	<path class="st1" d="M181.68,225.07c-4.3,17.16-13.01,32.03-24.6,43.66l-0.01,0.01l-18.88,14.64l-85.11,65.99L8.55,242.47
		c-8.6-18.73-11.12-40.51-5.69-62.19c12.54-50.09,62.74-80.67,112.13-68.3C164.36,124.35,194.23,174.98,181.68,225.07z
		 M105.25,150.84c-28.29-7.09-57.05,10.43-64.24,39.13s9.92,57.7,38.21,64.78c28.29,7.09,57.05-10.43,64.24-39.13
		S133.54,157.93,105.25,150.84z"/>
</g>
<path class="st2" d="M157.27,322.62c106.45-76.17,38.12-192.09,38.12-192.09"/>
<line class="st2" x1="139.45" y1="322.62" x2="152.82" y2="350.41"/>
<line class="st2" x1="126.09" y1="322.62" x2="139.45" y2="350.41"/>
<line class="st2" x1="112.72" y1="322.62" x2="126.09" y2="350.41"/>
<path d="M149.14,105.11l-20.04-20.04l20.04-20.04l20.04,20.04L149.14,105.11z M156.78,88.51l-7.64-7.64l-7.64,7.64l7.64,7.64
	L156.78,88.51z"/>
<g>
	<g>
		<path d="M268.31,229.3h-28.15l17.87-116.22l47.12,67.52l47.28-67.52l17.87,116.22h-28.15l-6.64-56.45l-30.36,46.17l-30.2-46.17
			L268.31,229.3z"/>
		<path d="M387.7,119.96c2.74-2.37,6.01-3.56,9.8-3.56c3.9,0,7.19,1.19,9.88,3.56c2.69,2.37,4.03,5.46,4.03,9.25
			s-1.34,6.91-4.03,9.33c-2.69,2.43-5.98,3.64-9.88,3.64c-3.79,0-7.06-1.21-9.8-3.64c-2.74-2.42-4.11-5.53-4.11-9.33
			S384.96,122.33,387.7,119.96z M409.05,156.56v72.74h-23.09v-72.74H409.05z"/>
		<path d="M457.75,118.61V229.3h-26.72V118.61H457.75z M447.79,118.61h23.56c9.49,0,17.39,1.53,23.72,4.59
			c6.33,3.06,11.12,7.3,14.39,12.73c3.27,5.43,4.9,11.73,4.9,18.9c0,7.06-1.64,13.31-4.9,18.74c-3.27,5.43-8.06,9.67-14.39,12.73
			c-6.33,3.06-14.23,4.59-23.72,4.59h-23.56v-20.71h21.66c3.58,0,6.67-0.55,9.25-1.66c2.58-1.11,4.56-2.74,5.93-4.9
			c1.37-2.16,2.06-4.77,2.06-7.83c0-3.06-0.69-5.67-2.06-7.83c-1.37-2.16-3.35-3.82-5.93-4.98c-2.58-1.16-5.67-1.74-9.25-1.74
			h-21.66V118.61z M486.37,179.18L521,229.3h-31.31l-30.99-50.13H486.37z"/>
		<path d="M546.06,226.22c-6.17-3.11-10.94-7.51-14.31-13.2c-3.38-5.69-5.06-12.39-5.06-20.08c0-7.8,1.63-14.55,4.9-20.24
			c3.27-5.69,7.99-10.07,14.15-13.12c6.17-3.06,13.47-4.59,21.9-4.59c8.43,0,15.55,1.45,21.35,4.35c5.8,2.9,10.22,7.09,13.28,12.57
			c3.06,5.48,4.59,12.12,4.59,19.92c0,1.16,0,2.29,0,3.4s-0.11,2.03-0.32,2.77h-66.41v-13.28h44.91l-5.69,7.27
			c0.53-0.74,0.97-1.66,1.34-2.77c0.37-1.11,0.55-2.03,0.55-2.77c0-3.16-0.58-5.9-1.74-8.22c-1.16-2.32-2.79-4.11-4.9-5.38
			c-2.11-1.27-4.59-1.9-7.43-1.9c-3.58,0-6.59,0.79-9.01,2.37c-2.43,1.58-4.24,3.98-5.46,7.19c-1.21,3.22-1.87,7.25-1.98,12.1
			c0,4.43,0.63,8.22,1.9,11.39c1.27,3.16,3.16,5.56,5.69,7.19c2.53,1.64,5.64,2.45,9.33,2.45c4.21,0,7.83-0.79,10.83-2.37
			c3-1.58,5.4-3.95,7.19-7.12l21.35,5.22c-3.79,7.17-8.93,12.55-15.42,16.13c-6.48,3.58-14.36,5.38-23.64,5.38
			C559.53,230.88,552.23,229.33,546.06,226.22z"/>
		<path d="M621.41,264.09V156.56h23.88v107.53H621.41z M699.76,214.28c-3.32,5.8-7.59,10.17-12.81,13.12
			c-5.22,2.95-10.83,4.43-16.84,4.43c-6.33,0-11.78-1.61-16.37-4.82s-8.09-7.75-10.52-13.6c-2.43-5.85-3.64-12.67-3.64-20.48
			c0-7.91,1.21-14.76,3.64-20.56c2.42-5.8,5.93-10.3,10.52-13.52c4.59-3.21,10.04-4.82,16.37-4.82c6.01,0,11.62,1.48,16.84,4.43
			c5.22,2.95,9.49,7.3,12.81,13.05c3.32,5.75,4.98,12.89,4.98,21.43C704.75,201.37,703.08,208.48,699.76,214.28z M677.23,183.29
			c-1.58-2.63-3.69-4.64-6.33-6.01c-2.64-1.37-5.54-2.06-8.7-2.06c-2.74,0-5.4,0.66-7.99,1.98c-2.58,1.32-4.72,3.3-6.4,5.93
			c-1.69,2.64-2.53,5.91-2.53,9.8c0,3.9,0.84,7.17,2.53,9.8c1.68,2.64,3.82,4.61,6.4,5.93c2.58,1.32,5.24,1.98,7.99,1.98
			c3.16,0,6.06-0.68,8.7-2.06c2.63-1.37,4.74-3.37,6.33-6.01c1.58-2.63,2.37-5.85,2.37-9.65S678.81,185.92,677.23,183.29z"/>
		<path d="M720.24,172.85c3.58-5.69,8.54-10.12,14.86-13.28s13.44-4.74,21.35-4.74c7.91,0,15,1.58,21.27,4.74
			c6.27,3.16,11.23,7.59,14.86,13.28c3.64,5.69,5.46,12.39,5.46,20.08c0,7.59-1.82,14.23-5.46,19.92
			c-3.64,5.69-8.59,10.12-14.86,13.28c-6.27,3.16-13.36,4.74-21.27,4.74c-7.91,0-15.02-1.58-21.35-4.74
			c-6.33-3.16-11.28-7.59-14.86-13.28c-3.58-5.69-5.38-12.33-5.38-19.92C714.86,185.24,716.66,178.54,720.24,172.85z M741.75,202.66
			c1.58,2.69,3.64,4.77,6.17,6.25c2.53,1.48,5.38,2.21,8.54,2.21c3.06,0,5.88-0.74,8.46-2.21c2.58-1.48,4.64-3.56,6.17-6.25
			c1.53-2.69,2.29-5.93,2.29-9.73s-0.77-7.06-2.29-9.8c-1.53-2.74-3.59-4.85-6.17-6.33c-2.58-1.47-5.4-2.21-8.46-2.21
			c-3.16,0-6.01,0.74-8.54,2.21c-2.53,1.48-4.59,3.59-6.17,6.33c-1.58,2.74-2.37,6.01-2.37,9.8S740.16,199.97,741.75,202.66z"/>
		<path d="M835.99,229.3h-23.56v-72.74h23.56V229.3z M852.99,178.23c-1.42-0.74-3.19-1.11-5.3-1.11c-2.32,0-4.38,0.63-6.17,1.9
			c-1.79,1.27-3.16,3.11-4.11,5.53c-0.95,2.43-1.42,5.38-1.42,8.85l-5.69-8.38c0-5.8,1.13-10.96,3.4-15.5
			c2.27-4.53,5.24-8.12,8.93-10.75c3.69-2.63,7.54-3.95,11.54-3.95c2.63,0,5.16,0.53,7.59,1.58c2.42,1.06,4.27,2.53,5.53,4.43
			l-10.28,20.4C855.76,179.97,854.41,178.97,852.99,178.23z"/>
		<path d="M917.58,156.56v19.77h-48.7v-19.77H917.58z M904.62,131.26v98.04h-22.93v-98.04H904.62z"/>
		<path d="M942.8,226.22c-6.17-3.11-10.94-7.51-14.31-13.2c-3.38-5.69-5.06-12.39-5.06-20.08c0-7.8,1.63-14.55,4.9-20.24
			c3.27-5.69,7.99-10.07,14.15-13.12c6.17-3.06,13.47-4.59,21.9-4.59c8.43,0,15.55,1.45,21.35,4.35c5.8,2.9,10.22,7.09,13.28,12.57
			c3.06,5.48,4.59,12.12,4.59,19.92c0,1.16,0,2.29,0,3.4s-0.11,2.03-0.32,2.77h-66.41v-13.28h44.91l-5.69,7.27
			c0.53-0.74,0.97-1.66,1.34-2.77c0.37-1.11,0.55-2.03,0.55-2.77c0-3.16-0.58-5.9-1.74-8.22c-1.16-2.32-2.79-4.11-4.9-5.38
			c-2.11-1.27-4.59-1.9-7.43-1.9c-3.58,0-6.59,0.79-9.01,2.37c-2.43,1.58-4.24,3.98-5.46,7.19c-1.21,3.22-1.87,7.25-1.98,12.1
			c0,4.43,0.63,8.22,1.9,11.39c1.27,3.16,3.16,5.56,5.69,7.19c2.53,1.64,5.64,2.45,9.33,2.45c4.21,0,7.83-0.79,10.83-2.37
			c3-1.58,5.4-3.95,7.19-7.12l21.35,5.22c-3.79,7.17-8.93,12.55-15.42,16.13c-6.48,3.58-14.36,5.38-23.64,5.38
			C956.27,230.88,948.97,229.33,942.8,226.22z"/>
	</g>
</g>
</svg>
